<?xml version="1.0" encoding="utf-8" standalone="no"?>
<!DOCTYPE svg PUBLIC "-//W3C//DTD SVG 1.1//EN"
  "http://www.w3.org/Graphics/SVG/1.1/DTD/svg11.dtd">
<svg xmlns:xlink="http://www.w3.org/1999/xlink" width="720pt" height="432pt" viewBox="0 0 720 432" xmlns="http://www.w3.org/2000/svg" version="1.1">
 <metadata>
  <rdf:RDF xmlns:dc="http://purl.org/dc/elements/1.1/" xmlns:cc="http://creativecommons.org/ns#" xmlns:rdf="http://www.w3.org/1999/02/22-rdf-syntax-ns#">
   <cc:Work>
    <dc:type rdf:resource="http://purl.org/dc/dcmitype/StillImage"/>
    <dc:date>2025-03-08T16:35:52.997165</dc:date>
    <dc:format>image/svg+xml</dc:format>
    <dc:creator>
     <cc:Agent>
      <dc:title>Matplotlib v3.9.4, https://matplotlib.org/</dc:title>
     </cc:Agent>
    </dc:creator>
   </cc:Work>
  </rdf:RDF>
 </metadata>
 <defs>
  <style type="text/css">*{stroke-linejoin: round; stroke-linecap: butt}</style>
 </defs>
 <g id="figure_1">
  <g id="patch_1">
   <path d="M 0 432 
L 720 432 
L 720 0 
L 0 0 
z
" style="fill: #ffffff"/>
  </g>
  <g id="axes_1">
   <g id="line2d_1">
    <path d="M 115.363636 369.359936 
L 123.995905 369.247754 
L 134.151515 368.882218 
L 171.727273 367.278139 
L 185.945127 367.055047 
L 201.686323 367.037554 
L 216.411957 367.233996 
L 229.614251 367.627258 
L 244.339885 368.305245 
L 263.127764 369.163252 
L 272.267813 369.349551 
L 280.900082 369.308422 
L 290.547912 369.027323 
L 304.765766 368.34925 
L 322.030303 367.571679 
L 335.232596 367.211632 
L 349.958231 367.045945 
L 365.699427 367.095497 
L 379.917281 367.356614 
L 393.119574 367.822983 
L 430.187551 369.340064 
L 438.81982 369.324457 
L 447.959869 369.085141 
L 460.654382 368.501972 
L 481.473382 367.543661 
L 494.675676 367.188476 
L 509.40131 367.02639 
L 525.142506 367.076285 
L 539.36036 367.335333 
L 552.562654 367.799912 
L 572.366093 368.775036 
L 584.045045 369.227638 
L 593.185094 369.359659 
L 601.817363 369.264478 
L 611.972973 368.914459 
L 622.636364 368.393129 
L 622.636364 368.393129 
" clip-path="url(#pf81eebbb71)" style="fill: none; stroke: #000000; stroke-width: 1.5; stroke-linecap: square"/>
   </g>
   <g id="line2d_2">
    <path d="M 115.363636 353.567415 
L 123.995905 353.455233 
L 134.151515 353.089697 
L 171.727273 351.485618 
L 185.945127 351.262526 
L 201.686323 351.245033 
L 216.411957 351.441475 
L 229.614251 351.834737 
L 244.339885 352.512724 
L 263.127764 353.37073 
L 272.267813 353.55703 
L 280.900082 353.515901 
L 290.547912 353.234802 
L 304.765766 352.556729 
L 322.030303 351.779158 
L 335.232596 351.419111 
L 349.958231 351.253424 
L 365.699427 351.302975 
L 379.917281 351.564093 
L 393.119574 352.030462 
L 430.187551 353.547543 
L 438.81982 353.531936 
L 447.959869 353.29262 
L 460.654382 352.709451 
L 481.473382 351.751139 
L 494.675676 351.395955 
L 509.40131 351.233869 
L 525.142506 351.283764 
L 539.36036 351.542812 
L 552.562654 352.007391 
L 572.366093 352.982515 
L 584.045045 353.435117 
L 593.185094 353.567138 
L 601.817363 353.471957 
L 611.972973 353.121938 
L 622.636364 352.600608 
L 622.636364 352.600608 
" clip-path="url(#pf81eebbb71)" style="fill: none; stroke: #000000; stroke-width: 1.5; stroke-linecap: square"/>
   </g>
   <g id="line2d_3">
    <path d="M 115.363636 337.774894 
L 123.995905 337.662712 
L 134.151515 337.297176 
L 171.727273 335.693097 
L 185.945127 335.470005 
L 201.686323 335.452512 
L 216.411957 335.648954 
L 229.614251 336.042216 
L 244.339885 336.720203 
L 263.127764 337.578209 
L 272.267813 337.764509 
L 280.900082 337.72338 
L 290.547912 337.442281 
L 304.765766 336.764208 
L 322.030303 335.986637 
L 335.232596 335.62659 
L 349.958231 335.460903 
L 365.699427 335.510454 
L 379.917281 335.771571 
L 393.119574 336.237941 
L 430.187551 337.755021 
L 438.81982 337.739415 
L 447.959869 337.500099 
L 460.654382 336.91693 
L 481.473382 335.958618 
L 494.675676 335.603434 
L 509.40131 335.441348 
L 525.142506 335.491243 
L 539.36036 335.750291 
L 552.562654 336.21487 
L 572.366093 337.189994 
L 584.045045 337.642596 
L 593.185094 337.774617 
L 601.817363 337.679436 
L 611.972973 337.329417 
L 622.636364 336.808086 
L 622.636364 336.808086 
" clip-path="url(#pf81eebbb71)" style="fill: none; stroke: #000000; stroke-width: 1.5; stroke-linecap: square"/>
   </g>
   <g id="line2d_4">
    <path d="M 115.363636 321.982373 
L 123.995905 321.870191 
L 134.151515 321.504655 
L 171.727273 319.900576 
L 185.945127 319.677484 
L 201.686323 319.659991 
L 216.411957 319.856433 
L 229.614251 320.249695 
L 244.339885 320.927682 
L 263.127764 321.785688 
L 272.267813 321.971988 
L 280.900082 321.930859 
L 290.547912 321.64976 
L 304.765766 320.971687 
L 322.030303 320.194116 
L 335.232596 319.834069 
L 349.958231 319.668382 
L 365.699427 319.717933 
L 379.917281 319.97905 
L 393.119574 320.44542 
L 430.187551 321.9625 
L 438.81982 321.946894 
L 447.959869 321.707578 
L 460.654382 321.124409 
L 481.473382 320.166097 
L 494.675676 319.810913 
L 509.40131 319.648827 
L 525.142506 319.698722 
L 539.36036 319.95777 
L 552.562654 320.422349 
L 572.366093 321.397472 
L 584.045045 321.850075 
L 593.185094 321.982096 
L 601.817363 321.886915 
L 611.972973 321.536896 
L 622.636364 321.015565 
L 622.636364 321.015565 
" clip-path="url(#pf81eebbb71)" style="fill: none; stroke: #000000; stroke-width: 1.5; stroke-linecap: square"/>
   </g>
   <g id="line2d_5">
    <path d="M 115.363636 306.189851 
L 123.995905 306.07767 
L 134.151515 305.712134 
L 171.727273 304.108055 
L 185.945127 303.884963 
L 201.686323 303.86747 
L 216.411957 304.063912 
L 229.614251 304.457174 
L 244.339885 305.135161 
L 263.127764 305.993167 
L 272.267813 306.179467 
L 280.900082 306.138338 
L 290.547912 305.857239 
L 304.765766 305.179166 
L 322.030303 304.401595 
L 335.232596 304.041548 
L 349.958231 303.875861 
L 365.699427 303.925412 
L 379.917281 304.186529 
L 393.119574 304.652899 
L 430.187551 306.169979 
L 438.81982 306.154373 
L 447.959869 305.915057 
L 460.654382 305.331888 
L 481.473382 304.373576 
L 494.675676 304.018392 
L 509.40131 303.856306 
L 525.142506 303.9062 
L 539.36036 304.165249 
L 552.562654 304.629828 
L 572.366093 305.604951 
L 584.045045 306.057554 
L 593.185094 306.189575 
L 601.817363 306.094394 
L 611.972973 305.744375 
L 622.636364 305.223044 
L 622.636364 305.223044 
" clip-path="url(#pf81eebbb71)" style="fill: none; stroke: #000000; stroke-width: 1.5; stroke-linecap: square"/>
   </g>
   <g id="line2d_6">
    <path d="M 115.363636 290.39733 
L 123.995905 290.285149 
L 134.151515 289.919613 
L 171.727273 288.315534 
L 185.945127 288.092442 
L 201.686323 288.074949 
L 216.411957 288.271391 
L 229.614251 288.664653 
L 244.339885 289.34264 
L 263.127764 290.200646 
L 272.267813 290.386946 
L 280.900082 290.345817 
L 290.547912 290.064718 
L 304.765766 289.386645 
L 322.030303 288.609074 
L 335.232596 288.249027 
L 349.958231 288.08334 
L 365.699427 288.132891 
L 379.917281 288.394008 
L 393.119574 288.860377 
L 430.187551 290.377458 
L 438.81982 290.361852 
L 447.959869 290.122536 
L 460.654382 289.539367 
L 481.473382 288.581055 
L 494.675676 288.225871 
L 509.40131 288.063785 
L 525.142506 288.113679 
L 539.36036 288.372728 
L 552.562654 288.837307 
L 572.366093 289.81243 
L 584.045045 290.265033 
L 593.185094 290.397054 
L 601.817363 290.301873 
L 611.972973 289.951854 
L 622.636364 289.430523 
L 622.636364 289.430523 
" clip-path="url(#pf81eebbb71)" style="fill: none; stroke: #000000; stroke-width: 1.5; stroke-linecap: square"/>
   </g>
   <g id="line2d_7">
    <path d="M 115.363636 274.604809 
L 123.995905 274.492628 
L 134.151515 274.127092 
L 171.727273 272.523013 
L 185.945127 272.299921 
L 201.686323 272.282428 
L 216.411957 272.47887 
L 229.614251 272.872132 
L 244.339885 273.550119 
L 263.127764 274.408125 
L 272.267813 274.594425 
L 280.900082 274.553295 
L 290.547912 274.272197 
L 304.765766 273.594124 
L 322.030303 272.816553 
L 335.232596 272.456506 
L 349.958231 272.290819 
L 365.699427 272.34037 
L 379.917281 272.601487 
L 393.119574 273.067856 
L 430.187551 274.584937 
L 438.81982 274.569331 
L 447.959869 274.330015 
L 460.654382 273.746846 
L 481.473382 272.788534 
L 494.675676 272.43335 
L 509.40131 272.271264 
L 525.142506 272.321158 
L 539.36036 272.580207 
L 552.562654 273.044786 
L 572.366093 274.019909 
L 584.045045 274.472512 
L 593.185094 274.604533 
L 601.817363 274.509351 
L 611.972973 274.159333 
L 622.636364 273.638002 
L 622.636364 273.638002 
" clip-path="url(#pf81eebbb71)" style="fill: none; stroke: #000000; stroke-width: 1.5; stroke-linecap: square"/>
   </g>
   <g id="line2d_8">
    <path d="M 115.363636 258.812288 
L 123.995905 258.700107 
L 134.151515 258.334571 
L 171.727273 256.730492 
L 185.945127 256.5074 
L 201.686323 256.489907 
L 216.411957 256.686349 
L 229.614251 257.079611 
L 244.339885 257.757598 
L 263.127764 258.615604 
L 272.267813 258.801904 
L 280.900082 258.760774 
L 290.547912 258.479676 
L 304.765766 257.801603 
L 322.030303 257.024032 
L 335.232596 256.663985 
L 349.958231 256.498298 
L 365.699427 256.547849 
L 379.917281 256.808966 
L 393.119574 257.275335 
L 430.187551 258.792416 
L 438.81982 258.77681 
L 447.959869 258.537494 
L 460.654382 257.954325 
L 481.473382 256.996013 
L 494.675676 256.640829 
L 509.40131 256.478742 
L 525.142506 256.528637 
L 539.36036 256.787686 
L 552.562654 257.252265 
L 572.366093 258.227388 
L 584.045045 258.679991 
L 593.185094 258.812012 
L 601.817363 258.71683 
L 611.972973 258.366812 
L 622.636364 257.845481 
L 622.636364 257.845481 
" clip-path="url(#pf81eebbb71)" style="fill: none; stroke: #000000; stroke-width: 1.5; stroke-linecap: square"/>
   </g>
   <g id="line2d_9">
    <path d="M 115.363636 243.019767 
L 123.995905 242.907586 
L 134.151515 242.54205 
L 171.727273 240.937971 
L 185.945127 240.714879 
L 201.686323 240.697386 
L 216.411957 240.893828 
L 229.614251 241.28709 
L 244.339885 241.965077 
L 263.127764 242.823083 
L 272.267813 243.009383 
L 280.900082 242.968253 
L 290.547912 242.687155 
L 304.765766 242.009082 
L 322.030303 241.231511 
L 335.232596 240.871464 
L 349.958231 240.705777 
L 365.699427 240.755328 
L 379.917281 241.016445 
L 393.119574 241.482814 
L 430.187551 242.999895 
L 438.81982 242.984289 
L 447.959869 242.744973 
L 460.654382 242.161804 
L 481.473382 241.203492 
L 494.675676 240.848308 
L 509.40131 240.686221 
L 525.142506 240.736116 
L 539.36036 240.995164 
L 552.562654 241.459744 
L 572.366093 242.434867 
L 584.045045 242.887469 
L 593.185094 243.019491 
L 601.817363 242.924309 
L 611.972973 242.574291 
L 622.636364 242.05296 
L 622.636364 242.05296 
" clip-path="url(#pf81eebbb71)" style="fill: none; stroke: #000000; stroke-width: 1.5; stroke-linecap: square"/>
   </g>
   <g id="line2d_10">
    <path d="M 115.363636 227.227246 
L 123.995905 227.115065 
L 134.151515 226.749529 
L 171.727273 225.14545 
L 185.945127 224.922358 
L 201.686323 224.904865 
L 216.411957 225.101307 
L 229.614251 225.494569 
L 244.339885 226.172556 
L 263.127764 227.030562 
L 272.267813 227.216861 
L 280.900082 227.175732 
L 290.547912 226.894634 
L 304.765766 226.216561 
L 322.030303 225.43899 
L 335.232596 225.078943 
L 349.958231 224.913256 
L 365.699427 224.962807 
L 379.917281 225.223924 
L 393.119574 225.690293 
L 430.187551 227.207374 
L 438.81982 227.191768 
L 447.959869 226.952452 
L 460.654382 226.369283 
L 481.473382 225.410971 
L 494.675676 225.055786 
L 509.40131 224.8937 
L 525.142506 224.943595 
L 539.36036 225.202643 
L 552.562654 225.667223 
L 572.366093 226.642346 
L 584.045045 227.094948 
L 593.185094 227.22697 
L 601.817363 227.131788 
L 611.972973 226.78177 
L 622.636364 226.260439 
L 622.636364 226.260439 
" clip-path="url(#pf81eebbb71)" style="fill: none; stroke: #000000; stroke-width: 1.5; stroke-linecap: square"/>
   </g>
   <g id="line2d_11">
    <path d="M 115.363636 211.434725 
L 123.995905 211.322544 
L 134.151515 210.957007 
L 171.727273 209.352929 
L 185.945127 209.129836 
L 201.686323 209.112344 
L 216.411957 209.308786 
L 229.614251 209.702048 
L 244.339885 210.380035 
L 263.127764 211.238041 
L 272.267813 211.42434 
L 280.900082 211.383211 
L 290.547912 211.102113 
L 304.765766 210.42404 
L 322.030303 209.646469 
L 335.232596 209.286422 
L 349.958231 209.120735 
L 365.699427 209.170286 
L 379.917281 209.431403 
L 393.119574 209.897772 
L 430.187551 211.414853 
L 438.81982 211.399247 
L 447.959869 211.159931 
L 460.654382 210.576762 
L 481.473382 209.61845 
L 494.675676 209.263265 
L 509.40131 209.101179 
L 525.142506 209.151074 
L 539.36036 209.410122 
L 552.562654 209.874702 
L 572.366093 210.849825 
L 584.045045 211.302427 
L 593.185094 211.434449 
L 601.817363 211.339267 
L 611.972973 210.989249 
L 622.636364 210.467918 
L 622.636364 210.467918 
" clip-path="url(#pf81eebbb71)" style="fill: none; stroke: #000000; stroke-width: 1.5; stroke-linecap: square"/>
   </g>
   <g id="line2d_12">
    <path d="M 115.363636 195.642204 
L 123.995905 195.530023 
L 134.151515 195.164486 
L 171.727273 193.560408 
L 185.945127 193.337315 
L 201.686323 193.319823 
L 216.411957 193.516265 
L 229.614251 193.909527 
L 244.339885 194.587514 
L 263.127764 195.44552 
L 272.267813 195.631819 
L 280.900082 195.59069 
L 290.547912 195.309592 
L 304.765766 194.631519 
L 322.030303 193.853948 
L 335.232596 193.493901 
L 349.958231 193.328214 
L 365.699427 193.377765 
L 379.917281 193.638882 
L 393.119574 194.105251 
L 430.187551 195.622332 
L 438.81982 195.606726 
L 447.959869 195.36741 
L 460.654382 194.784241 
L 481.473382 193.825929 
L 494.675676 193.470744 
L 509.40131 193.308658 
L 525.142506 193.358553 
L 539.36036 193.617601 
L 552.562654 194.082181 
L 572.366093 195.057304 
L 584.045045 195.509906 
L 593.185094 195.641928 
L 601.817363 195.546746 
L 611.972973 195.196728 
L 622.636364 194.675397 
L 622.636364 194.675397 
" clip-path="url(#pf81eebbb71)" style="fill: none; stroke: #000000; stroke-width: 1.5; stroke-linecap: square"/>
   </g>
   <g id="line2d_13">
    <path d="M 115.363636 179.849683 
L 123.995905 179.737502 
L 134.151515 179.371965 
L 171.727273 177.767887 
L 185.945127 177.544794 
L 201.686323 177.527302 
L 216.411957 177.723744 
L 229.614251 178.117006 
L 244.339885 178.794993 
L 263.127764 179.652999 
L 272.267813 179.839298 
L 280.900082 179.798169 
L 290.547912 179.517071 
L 304.765766 178.838998 
L 322.030303 178.061427 
L 335.232596 177.70138 
L 349.958231 177.535693 
L 365.699427 177.585244 
L 379.917281 177.846361 
L 393.119574 178.31273 
L 430.187551 179.829811 
L 438.81982 179.814205 
L 447.959869 179.574889 
L 460.654382 178.99172 
L 481.473382 178.033408 
L 494.675676 177.678223 
L 509.40131 177.516137 
L 525.142506 177.566032 
L 539.36036 177.82508 
L 552.562654 178.28966 
L 572.366093 179.264783 
L 584.045045 179.717385 
L 593.185094 179.849407 
L 601.817363 179.754225 
L 611.972973 179.404207 
L 622.636364 178.882876 
L 622.636364 178.882876 
" clip-path="url(#pf81eebbb71)" style="fill: none; stroke: #000000; stroke-width: 1.5; stroke-linecap: square"/>
   </g>
   <g id="line2d_14">
    <path d="M 115.363636 164.057162 
L 123.995905 163.944981 
L 134.151515 163.579444 
L 171.727273 161.975366 
L 185.945127 161.752273 
L 201.686323 161.734781 
L 216.411957 161.931223 
L 229.614251 162.324485 
L 244.339885 163.002472 
L 263.127764 163.860478 
L 272.267813 164.046777 
L 280.900082 164.005648 
L 290.547912 163.72455 
L 304.765766 163.046477 
L 322.030303 162.268906 
L 335.232596 161.908859 
L 349.958231 161.743172 
L 365.699427 161.792723 
L 379.917281 162.05384 
L 393.119574 162.520209 
L 430.187551 164.03729 
L 438.81982 164.021684 
L 447.959869 163.782368 
L 460.654382 163.199199 
L 481.473382 162.240887 
L 494.675676 161.885702 
L 509.40131 161.723616 
L 525.142506 161.773511 
L 539.36036 162.032559 
L 552.562654 162.497139 
L 572.366093 163.472262 
L 584.045045 163.924864 
L 593.185094 164.056885 
L 601.817363 163.961704 
L 611.972973 163.611685 
L 622.636364 163.090355 
L 622.636364 163.090355 
" clip-path="url(#pf81eebbb71)" style="fill: none; stroke: #000000; stroke-width: 1.5; stroke-linecap: square"/>
   </g>
   <g id="line2d_15">
    <path d="M 115.363636 148.264641 
L 123.995905 148.15246 
L 134.151515 147.786923 
L 171.727273 146.182845 
L 185.945127 145.959752 
L 201.686323 145.94226 
L 216.411957 146.138702 
L 229.614251 146.531964 
L 244.339885 147.209951 
L 263.127764 148.067957 
L 272.267813 148.254256 
L 280.900082 148.213127 
L 290.547912 147.932029 
L 304.765766 147.253956 
L 322.030303 146.476385 
L 335.232596 146.116338 
L 349.958231 145.950651 
L 365.699427 146.000202 
L 379.917281 146.261319 
L 393.119574 146.727688 
L 430.187551 148.244769 
L 438.81982 148.229163 
L 447.959869 147.989846 
L 460.654382 147.406677 
L 481.473382 146.448366 
L 494.675676 146.093181 
L 509.40131 145.931095 
L 525.142506 145.98099 
L 539.36036 146.240038 
L 552.562654 146.704618 
L 572.366093 147.679741 
L 584.045045 148.132343 
L 593.185094 148.264364 
L 601.817363 148.169183 
L 611.972973 147.819164 
L 622.636364 147.297834 
L 622.636364 147.297834 
" clip-path="url(#pf81eebbb71)" style="fill: none; stroke: #000000; stroke-width: 1.5; stroke-linecap: square"/>
   </g>
   <g id="line2d_16">
    <path d="M 115.363636 132.47212 
L 123.995905 132.359939 
L 134.151515 131.994402 
L 171.727273 130.390324 
L 185.945127 130.167231 
L 201.686323 130.149739 
L 216.411957 130.346181 
L 229.614251 130.739443 
L 244.339885 131.41743 
L 263.127764 132.275436 
L 272.267813 132.461735 
L 280.900082 132.420606 
L 290.547912 132.139508 
L 304.765766 131.461435 
L 322.030303 130.683864 
L 335.232596 130.323817 
L 349.958231 130.15813 
L 365.699427 130.207681 
L 379.917281 130.468798 
L 393.119574 130.935167 
L 430.187551 132.452248 
L 438.81982 132.436642 
L 447.959869 132.197325 
L 460.654382 131.614156 
L 481.473382 130.655845 
L 494.675676 130.30066 
L 509.40131 130.138574 
L 525.142506 130.188469 
L 539.36036 130.447517 
L 552.562654 130.912097 
L 572.366093 131.88722 
L 584.045045 132.339822 
L 593.185094 132.471843 
L 601.817363 132.376662 
L 611.972973 132.026643 
L 622.636364 131.505313 
L 622.636364 131.505313 
" clip-path="url(#pf81eebbb71)" style="fill: none; stroke: #000000; stroke-width: 1.5; stroke-linecap: square"/>
   </g>
   <g id="line2d_17">
    <path d="M 115.363636 116.679599 
L 123.995905 116.567418 
L 134.151515 116.201881 
L 171.727273 114.597803 
L 185.945127 114.37471 
L 201.686323 114.357218 
L 216.411957 114.55366 
L 229.614251 114.946922 
L 244.339885 115.624909 
L 263.127764 116.482915 
L 272.267813 116.669214 
L 280.900082 116.628085 
L 290.547912 116.346987 
L 304.765766 115.668914 
L 322.030303 114.891342 
L 335.232596 114.531296 
L 349.958231 114.365609 
L 365.699427 114.41516 
L 379.917281 114.676277 
L 393.119574 115.142646 
L 430.187551 116.659727 
L 438.81982 116.644121 
L 447.959869 116.404804 
L 460.654382 115.821635 
L 481.473382 114.863324 
L 494.675676 114.508139 
L 509.40131 114.346053 
L 525.142506 114.395948 
L 539.36036 114.654996 
L 552.562654 115.119576 
L 572.366093 116.094699 
L 584.045045 116.547301 
L 593.185094 116.679322 
L 601.817363 116.584141 
L 611.972973 116.234122 
L 622.636364 115.712792 
L 622.636364 115.712792 
" clip-path="url(#pf81eebbb71)" style="fill: none; stroke: #000000; stroke-width: 1.5; stroke-linecap: square"/>
   </g>
   <g id="line2d_18">
    <path d="M 115.363636 100.887078 
L 123.995905 100.774897 
L 134.151515 100.40936 
L 171.727273 98.805282 
L 185.945127 98.582189 
L 201.686323 98.564697 
L 216.411957 98.761138 
L 229.614251 99.154401 
L 244.339885 99.832387 
L 263.127764 100.690394 
L 272.267813 100.876693 
L 280.900082 100.835564 
L 290.547912 100.554466 
L 304.765766 99.876393 
L 322.030303 99.098821 
L 335.232596 98.738775 
L 349.958231 98.573088 
L 365.699427 98.622639 
L 379.917281 98.883756 
L 393.119574 99.350125 
L 430.187551 100.867206 
L 438.81982 100.8516 
L 447.959869 100.612283 
L 460.654382 100.029114 
L 481.473382 99.070803 
L 494.675676 98.715618 
L 509.40131 98.553532 
L 525.142506 98.603427 
L 539.36036 98.862475 
L 552.562654 99.327054 
L 572.366093 100.302178 
L 584.045045 100.75478 
L 593.185094 100.886801 
L 601.817363 100.79162 
L 611.972973 100.441601 
L 622.636364 99.920271 
L 622.636364 99.920271 
" clip-path="url(#pf81eebbb71)" style="fill: none; stroke: #000000; stroke-width: 1.5; stroke-linecap: square"/>
   </g>
   <g id="line2d_19">
    <path d="M 115.363636 85.094557 
L 123.995905 84.982376 
L 134.151515 84.616839 
L 171.727273 83.012761 
L 185.945127 82.789668 
L 201.686323 82.772175 
L 216.411957 82.968617 
L 229.614251 83.36188 
L 244.339885 84.039866 
L 263.127764 84.897873 
L 272.267813 85.084172 
L 280.900082 85.043043 
L 290.547912 84.761945 
L 304.765766 84.083872 
L 322.030303 83.3063 
L 335.232596 82.946254 
L 349.958231 82.780567 
L 365.699427 82.830118 
L 379.917281 83.091235 
L 393.119574 83.557604 
L 430.187551 85.074685 
L 438.81982 85.059079 
L 447.959869 84.819762 
L 460.654382 84.236593 
L 481.473382 83.278282 
L 494.675676 82.923097 
L 509.40131 82.761011 
L 525.142506 82.810906 
L 539.36036 83.069954 
L 552.562654 83.534533 
L 572.366093 84.509657 
L 584.045045 84.962259 
L 593.185094 85.09428 
L 601.817363 84.999099 
L 611.972973 84.64908 
L 622.636364 84.12775 
L 622.636364 84.12775 
" clip-path="url(#pf81eebbb71)" style="fill: none; stroke: #000000; stroke-width: 1.5; stroke-linecap: square"/>
   </g>
   <g id="line2d_20">
    <path d="M 115.363636 69.302036 
L 123.995905 69.189855 
L 134.151515 68.824318 
L 171.727273 67.22024 
L 185.945127 66.997147 
L 201.686323 66.979654 
L 216.411957 67.176096 
L 229.614251 67.569359 
L 244.339885 68.247345 
L 263.127764 69.105352 
L 272.267813 69.291651 
L 280.900082 69.250522 
L 290.547912 68.969424 
L 304.765766 68.29135 
L 322.030303 67.513779 
L 335.232596 67.153733 
L 349.958231 66.988046 
L 365.699427 67.037597 
L 379.917281 67.298714 
L 393.119574 67.765083 
L 430.187551 69.282164 
L 438.81982 69.266557 
L 447.959869 69.027241 
L 460.654382 68.444072 
L 481.473382 67.485761 
L 494.675676 67.130576 
L 509.40131 66.96849 
L 525.142506 67.018385 
L 539.36036 67.277433 
L 552.562654 67.742012 
L 572.366093 68.717136 
L 584.045045 69.169738 
L 593.185094 69.301759 
L 601.817363 69.206578 
L 611.972973 68.856559 
L 622.636364 68.335229 
L 622.636364 68.335229 
" clip-path="url(#pf81eebbb71)" style="fill: none; stroke: #000000; stroke-width: 1.5; stroke-linecap: square"/>
   </g>
  </g>
 </g>
 <defs>
  <clipPath id="pf81eebbb71">
   <rect x="90" y="51.84" width="558" height="332.64"/>
  </clipPath>
 </defs>
</svg>
